<svg width="857" height="872" viewBox="0 0 857 872" fill="none" xmlns="http://www.w3.org/2000/svg">
<path d="M150.83 259.183C157.244 223.752 182.21 194.504 216.196 182.609L434.172 106.316C466.97 94.836 503.376 101.206 530.328 123.14L714.515 273.033C742.768 296.025 756.284 332.562 749.795 368.407L705.152 615.031C698.506 651.746 671.973 681.707 636.331 692.744L423.457 758.661C393.033 768.083 359.94 762.447 334.348 743.487L145.174 603.335C114.592 580.678 99.5228 542.624 106.302 505.172L150.83 259.183Z" fill="url(#paint0_linear_404_45)"/>
<g filter="url(#filter0_d_404_45)">
<path d="M150.83 259.183C157.244 223.752 182.21 194.504 216.196 182.609L434.172 106.316C466.97 94.836 503.376 101.206 530.328 123.14L714.515 273.033C742.768 296.025 756.284 332.562 749.795 368.407L705.152 615.031C698.506 651.746 671.973 681.707 636.331 692.744L423.457 758.661C393.033 768.083 359.94 762.447 334.348 743.487L145.174 603.335C114.592 580.678 99.5228 542.624 106.302 505.172L150.83 259.183Z" fill="url(#paint1_linear_404_45)"/>
</g>
<path d="M150.526 326.969C150.526 290.951 169.896 257.716 201.235 239.962L376.078 140.909C406.293 123.791 443.225 123.575 473.638 140.337L654.794 240.178C686.707 257.766 706.526 291.32 706.526 327.758V545.949C706.526 583.272 685.742 617.488 652.621 634.692L480.632 724.027C452.387 738.699 418.844 739.048 390.299 724.967L206.288 634.198C172.144 617.356 150.526 582.587 150.526 544.516V326.969Z" fill="url(#paint2_linear_404_45)"/>
<path d="M150.526 326.968C150.526 290.95 169.896 257.715 201.235 239.961L376.078 140.907C406.293 123.79 443.225 123.573 473.638 140.335L654.794 240.177C686.707 257.765 706.526 291.318 706.526 327.756V545.948C706.526 583.27 685.742 617.487 652.621 634.691L480.632 724.026C452.387 738.697 418.844 739.046 390.299 724.966L206.288 634.197C172.144 617.355 150.526 582.586 150.526 544.514V326.968Z" fill="url(#paint3_linear_404_45)"/>
<path d="M524.65 526.228C530.32 536.462 541.152 557.658 545.068 576.643C546.515 583.656 540.736 589.506 533.575 589.533L326.938 590.303C318.556 590.334 312.34 582.536 313.994 574.319C339.012 450.08 321.529 329.571 313.739 287.21C312.229 278.999 318.484 271.211 326.833 271.18L528.08 270.432C537.07 270.399 543.379 279.282 540.387 287.759L524.147 333.776C522.313 338.974 517.4 342.45 511.888 342.45L410.381 342.45C403.202 342.45 397.381 348.27 397.381 355.45V382.197C397.381 389.377 403.202 395.197 410.381 395.197H477.928C484.143 395.197 489.488 399.596 490.685 405.694L495.022 427.795C495.354 429.491 495.346 431.236 494.996 432.928L490.767 453.399C489.52 459.438 484.202 463.769 478.036 463.769H409.505C402.325 463.769 396.504 469.59 396.505 476.77L396.506 505.455C396.506 512.563 402.215 518.353 409.322 518.453L513.914 519.929C518.378 519.992 522.487 522.322 524.65 526.228Z" fill="white"/>
<defs>
<filter id="filter0_d_404_45" x="-4.57764e-05" y="-4.57764e-05" width="856.097" height="871.837" filterUnits="userSpaceOnUse" color-interpolation-filters="sRGB">
<feFlood flood-opacity="0" result="BackgroundImageFix"/>
<feColorMatrix in="SourceAlpha" type="matrix" values="0 0 0 0 0 0 0 0 0 0 0 0 0 0 0 0 0 0 127 0" result="hardAlpha"/>
<feOffset dy="4"/>
<feGaussianBlur stdDeviation="52.35"/>
<feComposite in2="hardAlpha" operator="out"/>
<feColorMatrix type="matrix" values="0 0 0 0 0 0 0 0 0 0 0 0 0 0 0 0 0 0 0.25 0"/>
<feBlend mode="normal" in2="BackgroundImageFix" result="effect1_dropShadow_404_45"/>
<feBlend mode="normal" in="SourceGraphic" in2="effect1_dropShadow_404_45" result="shape"/>
</filter>
<linearGradient id="paint0_linear_404_45" x1="491.079" y1="88.588" x2="367.325" y2="772.248" gradientUnits="userSpaceOnUse">
<stop stop-color="white"/>
</linearGradient>
<linearGradient id="paint1_linear_404_45" x1="491.079" y1="88.588" x2="367.325" y2="772.248" gradientUnits="userSpaceOnUse">
<stop stop-color="white"/>
</linearGradient>
<linearGradient id="paint2_linear_404_45" x1="428.526" y1="113.364" x2="428.526" y2="747.364" gradientUnits="userSpaceOnUse">
<stop/>
<stop offset="1" stop-color="#464646"/>
</linearGradient>
<linearGradient id="paint3_linear_404_45" x1="428.526" y1="113.363" x2="428.526" y2="747.363" gradientUnits="userSpaceOnUse">
<stop/>
<stop offset="1" stop-color="#464646"/>
</linearGradient>
</defs>
</svg>
